<svg xmlns="http://www.w3.org/2000/svg" viewBox="0 0 948.5 397.11"><defs><style>.cls-1{fill:#fff;}.cls-2{fill:#4b4bc4;}.cls-3{fill:#6f53f4;}</style></defs><title>silva_school-logo-white-svg</title><g id="school"><path class="cls-1" d="M1210.79,695.94q0,7.74-7.41,12.95a29.09,29.09,0,0,1-17.19,5.22,24,24,0,0,1-12.91-3.26q-5.27-3.26-5.26-6.24a25.23,25.23,0,0,1,5.68-7.83c2.8-2.79,5.37-4.25,7.74-4.38q2.32,1,4.33,5.08a42.75,42.75,0,0,1,3.21,9.36c3.36-.12,5-2,5-5.68q0-3.63-2.74-8.9a84.93,84.93,0,0,0-6-9.83,72.23,72.23,0,0,1-6-10.16,22.77,22.77,0,0,1-2.74-9.78q0-6.88,6.33-11.27a24.28,24.28,0,0,1,14.12-4.38q7.79,0,12.11,3.35t4.34,7.74a10.2,10.2,0,0,1-1.49,5.82c-1,1.46-1.79,2.58-2.38,3.35a16.79,16.79,0,0,1-2.38,2.47q-2.79,2.43-4.28,3.54l-1.4,1a47,47,0,0,1,8.29,15.84A19.81,19.81,0,0,1,1210.79,695.94Zm-4.85-37.36q0-4.38-5.59-4.38a8.94,8.94,0,0,0-5.26,1.4,4.13,4.13,0,0,0-2,3.49,10.68,10.68,0,0,0,1.73,5.08,30.81,30.81,0,0,0,2.75,4.19,22.89,22.89,0,0,0,5.31-4.1Q1205.95,661.28,1205.94,658.58Z" transform="translate(-485.5 -317)"/><path class="cls-1" d="M1240.33,678q-2.89,0-4.94,5.12a27.62,27.62,0,0,0-2.05,10.35q0,11.46,6.61,11.46,4.2,0,9.51-4l3,4.1a27.7,27.7,0,0,1-9.37,6.71,26.6,26.6,0,0,1-10.85,2.42q-7.28,0-11.79-4.42t-4.52-13.37q0-10.82,6.66-17.71t17.48-6.89q7,0,11,2.84a8.5,8.5,0,0,1,4,7.17,11.42,11.42,0,0,1-2.61,7.5,21.53,21.53,0,0,1-6.66-1.16,17.25,17.25,0,0,1-5.73-2.94l1.39-7A3.32,3.32,0,0,0,1240.33,678Z" transform="translate(-485.5 -317)"/><path class="cls-1" d="M1284.21,649.54q0,6.53-4.75,26.83,8-4.56,12.63-4.56t6.85,2.47a8.83,8.83,0,0,1,2.23,6.15q0,3.68-2.05,11.55t-2,10.3c0,1.62.25,2.42.75,2.42l4.84-1.3,1.68,4.66a34.34,34.34,0,0,1-8,4.1,25.51,25.51,0,0,1-9,2q-7.55,0-7.55-8.57a51.42,51.42,0,0,1,2-11.55c1.3-5.1,2-8.31,2-9.65s-.47-2-1.4-2a9.09,9.09,0,0,0-4.75,1.86q-4.2,17.81-4.2,24.79l.1,2.23a67.32,67.32,0,0,1-17,2.52c-.38-.19-.56-1.18-.56-3q0-5.78,5.54-28.61T1267,651.4a21.87,21.87,0,0,0-.37-4.28,63.34,63.34,0,0,1,17-2.52A14,14,0,0,1,1284.21,649.54Z" transform="translate(-485.5 -317)"/><path class="cls-1" d="M1321.76,714.11q-7.26,0-11.46-4.61t-4.19-13a25.94,25.94,0,0,1,6.06-17.38A19.87,19.87,0,0,1,1328.1,672l4.19.38a14.82,14.82,0,0,1,4.19-.65q4.66,0,6.67,3.16t2.28,9a31.78,31.78,0,0,0,7.46-1.21l1.3-.37c.43.43.74,1.74.93,3.91l.09,1a39.64,39.64,0,0,1-10.25,3.35,35.31,35.31,0,0,1-8.1,16.68A19.37,19.37,0,0,1,1321.76,714.11Zm1.87-18q0,8.67,4.38,8.67c2,0,4.14-1.31,6.29-3.92a22,22,0,0,0,4.42-9.5q-9.49,0-9.5-9.13a19.52,19.52,0,0,1,.28-3.27,2.85,2.85,0,0,0-1.4.28q-1.59,1.68-3,6.76A37,37,0,0,0,1323.63,696.13Z" transform="translate(-485.5 -317)"/><path class="cls-1" d="M1363.32,714.11q-7.26,0-11.46-4.61t-4.19-13a25.94,25.94,0,0,1,6-17.38,19.91,19.91,0,0,1,15.94-7.13l4.19.38a14.82,14.82,0,0,1,4.19-.65q4.67,0,6.67,3.16t2.28,9a31.61,31.61,0,0,0,7.45-1.21l1.31-.37c.43.43.74,1.74.93,3.91l.09,1a39.64,39.64,0,0,1-10.25,3.35,35.31,35.31,0,0,1-8.1,16.68A19.39,19.39,0,0,1,1363.32,714.11Zm1.87-18q0,8.67,4.37,8.67,3.07,0,6.29-3.92a22,22,0,0,0,4.43-9.5q-9.51,0-9.51-9.13a20.63,20.63,0,0,1,.28-3.27,2.81,2.81,0,0,0-1.39.28q-1.59,1.68-3,6.76A36.59,36.59,0,0,0,1365.19,696.13Z" transform="translate(-485.5 -317)"/><path class="cls-1" d="M1407.49,712.25a24.85,24.85,0,0,1-8.81,1.86,9.25,9.25,0,0,1-6.47-2.28,8.41,8.41,0,0,1-2.52-6.57q0-4.29,4.71-23.9t4.7-29.12a30.61,30.61,0,0,0-.56-5.22,63.71,63.71,0,0,1,17-2.42,10.42,10.42,0,0,1,.84,4.85q0,6.33-4.71,27.62t-4.7,24.56c0,2.17.37,3.26,1.12,3.26a15.16,15.16,0,0,0,4-1.21l1-.47,2.24,4.57A25.91,25.91,0,0,1,1407.49,712.25Z" transform="translate(-485.5 -317)"/></g><g id="silva-logo"><g id="form"><circle class="cls-2" cx="186.79" cy="200.78" r="186.79"/><circle class="cls-3" cx="200.78" cy="186.79" r="186.79"/><path class="cls-1" d="M762.22,562.89q0,29.55-28.31,49.48t-65.68,19.94q-29.19,0-49.31-12.46T598.81,596q5.69-13.89,21.71-29.91t29.55-16.73q8.89,3.92,16.56,19.4a162.44,162.44,0,0,1,12.28,35.78q19.23-.7,19.22-21.71,0-13.89-10.5-34a317.35,317.35,0,0,0-23-37.56,275.24,275.24,0,0,1-23-38.81Q631.2,451.1,631.2,435.08q0-26.34,24.21-43.08a92.76,92.76,0,0,1,53.94-16.73q29.71,0,46.28,12.81t16.56,29.55q0,13.89-5.7,22.25t-9.08,12.82a66.25,66.25,0,0,1-9.08,9.44Q737.65,471.4,732,475.66l-5.34,3.92q21,26,31.68,60.52A76.67,76.67,0,0,1,762.22,562.89ZM743.7,420.13q0-16.74-21.36-16.74-12.47,0-20.11,5.34t-7.66,13.35q0,8,6.59,19.41t10.5,16q8.55-4.27,20.3-15.67T743.7,420.13Z" transform="translate(-485.5 -317)"/></g><path class="cls-1" d="M980.8,609.48c-169.84,90-44.72-101.86-88.64-125l1.07-6q18.48-5.7,71.91-5.71,5.68,6.42,5.7,22.25c2.22,36.32-43.6,122.64,3.55,96.67Z" transform="translate(-485.5 -317)"/><path class="cls-1" d="M944.31,445c-50.77-1.26-41.26-63.11,4.1-61.94C999.8,382.91,987.63,445.74,944.31,445Z" transform="translate(-485.5 -317)"/><path class="cls-1" d="M1058.77,625.86q-18.52,7.11-33.65,7.12t-24.74-8.72q-9.61-8.71-9.61-25.1t18-91.32q18-74.94,18-111.25a119.55,119.55,0,0,0-2.13-19.94,242.61,242.61,0,0,1,64.79-9.26q3.21,5.7,3.21,18.52,0,24.21-18,105.55t-18,93.81q0,12.48,4.27,12.47,3.55,0,15.31-4.63l3.92-1.78,8.54,17.44Q1077.27,618.74,1058.77,625.86Z" transform="translate(-485.5 -317)"/><path class="cls-1" d="M1105.05,588.12l4.63-74.4q0-9.62-2.68-15.14t-10.85-15.48l1.42-5.34q27.4-6.4,45.57-6.41t25.46,8.37q7.29,8.37,7.29,23.67t-5.51,44.86q-5.54,29.55-5.52,39t5.34,9.44q8.54,0,22.25-16.2t18-31.86l-26.35-25.28a105.45,105.45,0,0,1,6.41-28q5-13,8.9-18.33l4.27-5.7q43.08,0,43.08,35.6,0,23.15-14.06,52.16a164.13,164.13,0,0,1-39.34,51.44Q1168.05,633,1141,633,1105,633,1105.05,588.12Z" transform="translate(-485.5 -317)"/><path class="cls-1" d="M1411.22,539.53q-5.35,31.86-5.35,44.5t3.92,12.64l17.8-5,6.41,17.8q-11.4,8.91-29,16.2t-31.16,7.3q-23.14,0-29.19-19.94Q1316.52,633,1295,633t-33.29-15.66q-11.75-15.68-11.75-44.86,0-40.23,20.65-70.85T1325.06,471q18.51,0,37.74,10.33a78.29,78.29,0,0,1,4.63-9.26q25.62,0,56.6,12.46Q1416.56,507.67,1411.22,539.53ZM1316.87,568q0,18,2.49,22.61t9.26,4.62q6.77,0,13.17-5.34,1.43-41.29,13.53-86.51a23.45,23.45,0,0,0-12.28-3.2q-6.94,0-12.46,7.83t-8.37,19.58Q1316.87,550,1316.87,568Z" transform="translate(-485.5 -317)"/></g></svg>