<svg xmlns="http://www.w3.org/2000/svg" viewBox="0 0 387.57 387.57"><defs><style>.cls-1{fill:#4b4bc4;}.cls-2{fill:#6f53f4;}.cls-3{fill:#fff;}.cls-4{fill:#fcfcfc;}</style></defs><title>silva_school-logo-form-svg</title><g id="silva-logo"><g id="form"><circle class="cls-1" cx="186.79" cy="200.78" r="186.79"/><circle class="cls-2" cx="200.78" cy="186.79" r="186.79"/><path class="cls-3" d="M1043.22,591.89q0,29.55-28.31,49.48t-65.68,19.94q-29.19,0-49.31-12.46T879.81,625q5.69-13.89,21.71-29.91t29.55-16.73q8.89,3.92,16.56,19.4a162.44,162.44,0,0,1,12.28,35.78q19.23-.7,19.22-21.71,0-13.89-10.5-34a317.35,317.35,0,0,0-23-37.56,275.24,275.24,0,0,1-23-38.81Q912.2,480.1,912.2,464.08q0-26.34,24.21-43.08a92.76,92.76,0,0,1,53.94-16.73q29.71,0,46.28,12.81t16.56,29.55q0,13.89-5.7,22.25t-9.08,12.82a66.25,66.25,0,0,1-9.08,9.44q-10.68,9.25-16.37,13.52l-5.34,3.92q21,26,31.68,60.52A76.67,76.67,0,0,1,1043.22,591.89ZM1024.7,449.13q0-16.74-21.36-16.74-12.47,0-20.11,5.34t-7.66,13.35q0,8,6.59,19.41t10.5,16q8.55-4.27,20.3-15.67T1024.7,449.13Z" transform="translate(-766.5 -346)"/><g id="Layer_5" data-name="Layer 5"><path class="cls-4" d="M925,690.85a6.93,6.93,0,0,1-3.32,5.81A13.08,13.08,0,0,1,914,699a10.84,10.84,0,0,1-5.79-1.46c-1.57-1-2.36-1.91-2.36-2.8a11.14,11.14,0,0,1,2.55-3.52,5.64,5.64,0,0,1,3.47-2,4.51,4.51,0,0,1,1.94,2.28,19.3,19.3,0,0,1,1.45,4.2q2.25-.09,2.25-2.55a9,9,0,0,0-1.23-4,36.39,36.39,0,0,0-2.7-4.42,32.49,32.49,0,0,1-2.69-4.55,10.19,10.19,0,0,1-1.24-4.39,5.93,5.93,0,0,1,2.85-5.06,10.86,10.86,0,0,1,6.33-2,8.67,8.67,0,0,1,5.44,1.51,4.35,4.35,0,0,1,1.94,3.47,4.51,4.51,0,0,1-.67,2.61c-.44.66-.8,1.16-1.07,1.51a7.61,7.61,0,0,1-1.06,1.1q-1.26,1.1-1.92,1.59l-.63.46a21.33,21.33,0,0,1,3.72,7.11A8.92,8.92,0,0,1,925,690.85Zm-2.17-16.77c0-1.31-.84-2-2.51-2a4.05,4.05,0,0,0-2.37.62,1.86,1.86,0,0,0-.9,1.57,4.75,4.75,0,0,0,.78,2.28,14.21,14.21,0,0,0,1.23,1.88,10.49,10.49,0,0,0,2.39-1.84A3.72,3.72,0,0,0,922.86,674.08Z" transform="translate(-766.5 -346)"/><path class="cls-4" d="M938.28,682.78c-.86,0-1.6.76-2.21,2.3a12.26,12.26,0,0,0-.92,4.64q0,5.14,3,5.14a7.4,7.4,0,0,0,4.26-1.8l1.34,1.84a12.44,12.44,0,0,1-4.2,3,11.85,11.85,0,0,1-4.87,1.09,7.21,7.21,0,0,1-5.29-2c-1.36-1.32-2-3.32-2-6a10.92,10.92,0,0,1,3-7.94,10.4,10.4,0,0,1,7.84-3.09,8.39,8.39,0,0,1,4.93,1.27,3.81,3.81,0,0,1,1.8,3.22,5.14,5.14,0,0,1-1.17,3.37,9.69,9.69,0,0,1-3-.53,7.63,7.63,0,0,1-2.57-1.31l.62-3.14A1.69,1.69,0,0,0,938.28,682.78Z" transform="translate(-766.5 -346)"/><path class="cls-4" d="M958,670q0,2.93-2.13,12,3.6-2.05,5.67-2.05a3.65,3.65,0,0,1,4.07,3.87,22.85,22.85,0,0,1-.92,5.18,24.66,24.66,0,0,0-.92,4.62c0,.73.12,1.09.34,1.09l2.17-.59.76,2.09a15.31,15.31,0,0,1-3.58,1.84,11.32,11.32,0,0,1-4,.88q-3.39,0-3.39-3.85a22.66,22.66,0,0,1,.88-5.18,25.59,25.59,0,0,0,.88-4.33q0-.9-.63-.9a4,4,0,0,0-2.13.84q-1.89,8-1.88,11.12l0,1a30,30,0,0,1-7.65,1.13c-.17-.08-.25-.53-.25-1.33q0-2.6,2.48-12.84t2.49-13.8a10,10,0,0,0-.17-1.92,28.59,28.59,0,0,1,7.61-1.13A6.1,6.1,0,0,1,958,670Z" transform="translate(-766.5 -346)"/><path class="cls-4" d="M974.82,699a6.61,6.61,0,0,1-5.14-2.07,8.37,8.37,0,0,1-1.88-5.83,11.64,11.64,0,0,1,2.72-7.8,8.92,8.92,0,0,1,7.15-3.2l1.88.17a6.53,6.53,0,0,1,1.88-.29,3.26,3.26,0,0,1,3,1.42,8.33,8.33,0,0,1,1,4.05,14,14,0,0,0,3.35-.54l.58-.17a3.4,3.4,0,0,1,.42,1.76l0,.46a17.61,17.61,0,0,1-4.6,1.5A15.86,15.86,0,0,1,981.6,696,8.71,8.71,0,0,1,974.82,699Zm.84-8.07c0,2.59.66,3.89,2,3.89a3.92,3.92,0,0,0,2.83-1.76,9.88,9.88,0,0,0,2-4.26q-4.26,0-4.26-4.1a9.27,9.27,0,0,1,.12-1.46,1.28,1.28,0,0,0-.62.12,7.84,7.84,0,0,0-1.36,3A16.66,16.66,0,0,0,975.66,690.93Z" transform="translate(-766.5 -346)"/><path class="cls-4" d="M993.47,699a6.6,6.6,0,0,1-5.14-2.07,8.33,8.33,0,0,1-1.88-5.83,11.63,11.63,0,0,1,2.71-7.8,9,9,0,0,1,7.15-3.2l1.89.17a6.48,6.48,0,0,1,1.88-.29,3.26,3.26,0,0,1,3,1.42,8.33,8.33,0,0,1,1,4.05,14,14,0,0,0,3.35-.54l.58-.17a3.5,3.5,0,0,1,.42,1.76l0,.46a17.74,17.74,0,0,1-4.6,1.5,15.78,15.78,0,0,1-3.64,7.49A8.71,8.71,0,0,1,993.47,699Zm.84-8.07c0,2.59.65,3.89,2,3.89a3.9,3.9,0,0,0,2.82-1.76,9.78,9.78,0,0,0,2-4.26q-4.26,0-4.26-4.1a9.27,9.27,0,0,1,.12-1.46,1.3,1.3,0,0,0-.63.12,8.16,8.16,0,0,0-1.36,3A16.64,16.64,0,0,0,994.31,690.93Z" transform="translate(-766.5 -346)"/><path class="cls-4" d="M1013.29,698.16a11.1,11.1,0,0,1-3.95.84,4.17,4.17,0,0,1-2.91-1,3.81,3.81,0,0,1-1.13-3q0-1.92,2.11-10.73t2.12-13.06a14.73,14.73,0,0,0-.25-2.34,28.19,28.19,0,0,1,7.6-1.09,4.55,4.55,0,0,1,.38,2.17q0,2.85-2.11,12.4t-2.11,11c0,1,.17,1.46.5,1.46a6.75,6.75,0,0,0,1.8-.54l.46-.21,1,2A11.44,11.44,0,0,1,1013.29,698.16Z" transform="translate(-766.5 -346)"/></g></g></g></svg>